<svg xmlns="http://www.w3.org/2000/svg" id="Layer_2" viewBox="0 0 36.89 46"><defs><style>.cls-1{fill:#e15026;stroke-width:0}</style></defs><g id="Layer_1-2"><path d="m28.8,33.34c-2.83,0-5.43-1.47-6.9-3.87-.97.85-2.18,1.32-3.46,1.32s-2.49-.46-3.46-1.32c-1.47,2.4-4.06,3.87-6.9,3.87-4.46,0-8.09-3.63-8.09-8.09s3.63-8.09,8.09-8.09c2.83,0,5.43,1.47,6.9,3.87.97-.85,2.18-1.32,3.46-1.32s2.49.46,3.46,1.32c1.47-2.4,4.07-3.87,6.9-3.87,4.46,0,8.09,3.63,8.09,8.09s-3.63,8.09-8.09,8.09Zm-6.72-5.19l.26.49c1.27,2.41,3.74,3.9,6.46,3.9,4.02,0,7.3-3.27,7.3-7.3s-3.27-7.3-7.3-7.3c-2.71,0-5.19,1.5-6.46,3.9l-.26.49-.38-.41c-.87-.93-2.02-1.44-3.26-1.44s-2.39.51-3.26,1.44l-.38.41-.26-.49c-1.27-2.41-3.74-3.9-6.46-3.9-4.02,0-7.3,3.27-7.3,7.3s3.27,7.3,7.3,7.3c2.71,0,5.19-1.5,6.46-3.9l.26-.49.38.41c.87.93,2.02,1.44,3.26,1.44s2.39-.51,3.26-1.44l.38-.41Z" class="cls-1"/><path d="m18.45,46l-6.02-8.29v-3.47l3.11-2.18h6.09l2.83,2.19v3.46l-6,8.29Zm-5.23-8.55l5.23,7.2,5.21-7.2v-2.82l-2.31-1.78h-5.57l-2.56,1.8v2.8Z" class="cls-1"/><path d="m24.44,0c-1.12,0-2.03.91-2.03,2.03,0,.4.12.77.32,1.08-1.99,1.9-3.07,6.65-3.27,7.62h-2.05c-.26-1.24-1.35-5.67-3.25-7.49.2-.32.32-.69.32-1.08,0-1.12-.91-2.03-2.02-2.03s-2.03.91-2.03,2.03.91,2.02,2.03,2.02c.42,0,.82-.14,1.15-.37,1.65,1.54,2.68,5.54,2.99,6.9h-.34l-.16.03s-3.79,1.75-3.62,5.73v.2s2.71,1.77,2.71,1.77h6.51l2.71-1.77v-.2c.17-3.98-3.58-5.71-3.62-5.73h-.53c.26-1.18,1.3-5.44,3.02-7.06.32.23.73.37,1.16.37,1.12,0,2.02-.91,2.02-2.02s-.9-2.03-2.02-2.03Zm-11.98,3.39c-.69,0-1.24-.55-1.24-1.23s.55-1.24,1.24-1.24,1.23.55,1.23,1.24-.55,1.23-1.23,1.23Zm8.08,8.11c.49.24,3.1,1.68,3.09,4.74l-2.16,1.41h-5.98l-2.23-1.41c0-3.06,2.61-4.5,3.09-4.74h4.19Zm3.9-8.24c-.69,0-1.24-.55-1.24-1.23s.55-1.24,1.24-1.24,1.23.55,1.23,1.24-.55,1.23-1.23,1.23Z" class="cls-1"/></g></svg>