<svg xmlns="http://www.w3.org/2000/svg" id="Layer_2" viewBox="0 0 926.03 173.06"><defs><style>.cls-1,.cls-2{fill:#e05026;stroke-width:0}.cls-2{fill:#0e1f33}</style></defs><g id="Layer_1-2"><path d="m881.47,42.22l-20.67,58.03h40.58l-19.91-58.03Zm35.65,103.93l-12.89-37.46h-46.64l-13.08,37.46h-9.48l42.47-119.23h7.77l40.77,119.23h-8.91Zm-164.01,0V26.92h8.53v110.97h56.69v8.27h-65.22Zm-98.03,0V26.92h70.15v8.27h-61.81v44.84h54.8v8.09h-54.8v49.77h62.57v8.27h-70.91Zm-41.14,0V48.19l-37.35,97.95h-7.21l-37.54-98.13v98.13h-8.53V26.92h9.48l40.01,104.99,40.39-104.99h9.29v119.23h-8.53Zm-126.47,0l-49.49-62.08-18.2,18.47v43.61h-8.53V26.92h8.53v63.84l64.66-63.84h11.95l-52.33,51.35,54.23,67.88h-10.81Zm-145.43-103.93l-20.67,58.03h40.58l-19.91-58.03Zm35.65,103.93l-12.89-37.46h-46.64l-13.08,37.46h-9.48l42.47-119.23h7.77l40.77,119.23h-8.91Zm-115.09,0V48.19l-37.35,97.95h-7.21l-37.54-98.13v98.13h-8.53V26.92h9.48l40.01,104.99,40.39-104.99h9.29v119.23h-8.53Z" class="cls-2"/><path d="m108.35,125.43c-10.66,0-20.44-5.53-25.96-14.56-3.64,3.21-8.18,4.96-13,4.96s-9.37-1.75-13-4.96c-5.52,9.03-15.29,14.56-25.95,14.56-16.78,0-30.43-13.65-30.43-30.43s13.65-30.43,30.43-30.43c10.66,0,20.43,5.53,25.95,14.56,3.64-3.21,8.18-4.96,13-4.96s9.36,1.75,13,4.96c5.52-9.03,15.3-14.56,25.96-14.56,16.78,0,30.43,13.65,30.43,30.43s-13.65,30.43-30.43,30.43Zm-25.27-19.52l.97,1.85c4.77,9.06,14.08,14.69,24.3,14.69,15.14,0,27.45-12.32,27.45-27.45s-12.32-27.45-27.45-27.45c-10.21,0-19.52,5.63-24.3,14.69l-.97,1.85-1.43-1.53c-3.26-3.49-7.62-5.41-12.26-5.41s-9,1.92-12.26,5.41l-1.43,1.53-.97-1.85c-4.77-9.06-14.08-14.69-24.29-14.69-15.14,0-27.45,12.32-27.45,27.45s12.32,27.45,27.45,27.45c10.21,0,19.52-5.63,24.29-14.69l.97-1.85,1.43,1.53c3.26,3.49,7.62,5.41,12.26,5.41s8.99-1.92,12.26-5.41l1.43-1.53Z" class="cls-1"/><path d="m69.42,173.06l-22.66-31.2v-13.07l11.69-8.19h22.89l10.66,8.23v13.02l-22.59,31.2Zm-19.68-32.16l19.67,27.09,19.62-27.09v-10.59l-8.7-6.72h-20.94l-9.65,6.76v10.55Z" class="cls-1"/><path d="m62.82,42.08c-.05-.23-4.53-22.56-12.65-28.61l1.77-2.39c9.05,6.73,13.61,29.46,13.8,30.42l-2.92.58Z" class="cls-1"/><path d="m46.85,15.75c-4.21,0-7.63-3.42-7.63-7.63S42.64.49,46.85.49s7.63,3.42,7.63,7.63-3.42,7.63-7.63,7.63Zm0-12.29c-2.57,0-4.65,2.09-4.65,4.65s2.09,4.65,4.65,4.65,4.65-2.09,4.65-4.65-2.09-4.65-4.65-4.65Z" class="cls-1"/><path d="m75.96,41.59l-2.92-.58c.19-.96,4.75-23.7,13.8-30.42l1.77,2.39c-8.13,6.05-12.6,28.38-12.65,28.61Z" class="cls-1"/><path d="m91.93,15.27c-4.21,0-7.63-3.42-7.63-7.63s3.42-7.63,7.63-7.63,7.63,3.42,7.63,7.63-3.42,7.63-7.63,7.63Zm0-12.29c-2.57,0-4.65,2.09-4.65,4.65s2.09,4.65,4.65,4.65,4.65-2.09,4.65-4.65-2.09-4.65-4.65-4.65Z" class="cls-1"/><path d="m81.63,69.38h-24.49l-10.18-6.64-.03-.77c-.63-14.98,13.49-21.48,13.63-21.55l.61-.13,17.04.13c.14.06,14.27,6.56,13.63,21.55l-.03.77-10.18,6.64Zm-23.36-2.98h22.48l8.14-5.31c.06-11.5-9.79-16.91-11.62-17.82h-15.75c-1.83.91-11.68,6.32-11.62,17.82l8.38,5.31Z" class="cls-1"/></g></svg>